<?xml version="1.0" encoding="iso-8859-1"?>
<!-- Generator: Adobe Illustrator 16.0.0, SVG Export Plug-In . SVG Version: 6.00 Build 0)  -->
<!DOCTYPE svg PUBLIC "-//W3C//DTD SVG 1.1//EN" "http://www.w3.org/Graphics/SVG/1.1/DTD/svg11.dtd">
<svg version="1.1" id="Capa_1" xmlns="http://www.w3.org/2000/svg" xmlns:xlink="http://www.w3.org/1999/xlink" x="0px" y="0px"
	 width="354.385px" height="354.385px" viewBox="0 0 354.385 354.385" style="enable-background:new 0 0 354.385 354.385;"
	 xml:space="preserve">
<g>
	<g>
		<path d="M83.59,132.88H24.86C12.802,132.88,0,147.189,0,161.159v160.962c0,13.967,12.802,25.971,24.86,25.971h58.73
			c12.07,0,20.942-12.004,20.942-25.971V161.159C104.532,147.189,95.66,132.88,83.59,132.88z"/>
		<path d="M343.895,192.189c6.449-6.113,10.484-14.766,10.484-24.341c0-8.959-3.494-18.089-9.836-24.437
			c-6.341-6.326-14.76-10.532-23.707-10.532c-0.012,0-0.012,0-0.023,0h-77.51c21.671-67.638-16.825-111.878-18.573-113.884
			c-0.036-0.036-0.072,0.282-0.114,0.246c-6.347-8.239-16.2-12.949-26.535-12.949c-18.507,0-33.555,15.144-33.555,33.65
			c0,1.12,0.063,2.282,0.168,3.402c-0.24,1.225-0.229,2.516,0.036,3.75c6.413,29.387-6.941,62.786-15.483,80.08
			c-0.732,1.486-1.45,2.219-2.141,3.54c-1.285,1.514-3.023,2.165-4.999,2.165h-2.531c-0.468,0-2.258,0.744-2.726,0.805
			c-13.958,0.732-26.169,12.832-26.169,26.823v160.736c0,14.46,14.45,26.848,28.895,26.848h181.237c0.78,0,1.525-0.402,2.245-0.606
			c16.994-1.76,30.061-16.226,30.061-33.435c0-9.248-3.771-17.732-9.884-23.81c6.833-6.148,11.15-15.102,11.15-24.998
			c0-9.571-4.028-18.23-10.478-24.343c6.449-6.125,10.478-14.784,10.478-24.355C354.385,206.967,350.344,198.314,343.895,192.189z"
			/>
	</g>
</g>
<g>
</g>
<g>
</g>
<g>
</g>
<g>
</g>
<g>
</g>
<g>
</g>
<g>
</g>
<g>
</g>
<g>
</g>
<g>
</g>
<g>
</g>
<g>
</g>
<g>
</g>
<g>
</g>
<g>
</g>
</svg>
