<?xml version="1.0" encoding="iso-8859-1"?>
<!-- Generator: Adobe Illustrator 18.1.1, SVG Export Plug-In . SVG Version: 6.00 Build 0)  -->
<svg version="1.1" id="Capa_1" xmlns="http://www.w3.org/2000/svg" xmlns:xlink="http://www.w3.org/1999/xlink" x="0px" y="0px"
	 viewBox="0 0 57.148 57.148" style="enable-background:new 0 0 57.148 57.148;" xml:space="preserve">
<g>
	<g>
		<g>
			<path style="fill:#010002;" d="M13.109,56.302H3.558C1.596,56.302,0,54.452,0,52.181V26.003c0-2.271,1.596-4.119,3.558-4.119
				h9.551c1.962,0,3.558,1.848,3.558,4.119v26.178C16.667,54.452,15.071,56.302,13.109,56.302z M3.558,24.884
				C3.367,24.884,3,25.32,3,26.003v26.178c0,0.684,0.366,1.121,0.558,1.121h9.551c0.191,0,0.558-0.438,0.558-1.121V26.003
				c0-0.684-0.366-1.119-0.558-1.119H3.558z"/>
		</g>
		<g>
			<path style="fill:#010002;" d="M51.689,56.302H22.214c-2.35,0-4.262-1.912-4.262-4.264v-26.14c0-2.275,1.769-4.129,4.038-4.248
				c0.075-0.01,0.148-0.016,0.224-0.016h0.412c0.32-0.059,0.604-0.221,0.814-0.467c0.111-0.215,0.229-0.447,0.349-0.689
				c1.388-2.813,3.561-8.242,2.518-13.021C26.263,7.256,26.262,7.049,26.3,6.85c-0.018-0.182-0.027-0.363-0.027-0.545
				c0-3.01,2.448-5.459,5.458-5.459c1.682,0,3.283,0.795,4.316,2.135c0.005,0.006,0.011,0.012,0.017,0.018
				c0.284,0.326,6.546,7.676,3.021,18.637H51.69c0.001,0,0.002,0,0.003,0c1.456,0,2.825,0.568,3.856,1.598
				c1.031,1.031,1.599,2.402,1.599,3.859c0,1.557-0.655,2.965-1.704,3.959c1.049,0.996,1.704,2.402,1.704,3.959
				s-0.655,2.963-1.704,3.959c1.049,0.994,1.704,2.4,1.704,3.957c0,1.609-0.7,3.059-1.813,4.059
				c0.995,0.988,1.607,2.355,1.607,3.859c0,2.799-2.125,5.125-4.889,5.412C51.937,56.286,51.815,56.302,51.689,56.302z
				 M22.294,24.634c-0.049,0.006-0.097,0.01-0.146,0.01c-0.663,0.027-1.196,0.578-1.196,1.254v26.141
				c0,0.697,0.566,1.264,1.262,1.264h29.222c0.058-0.01,0.116-0.018,0.176-0.02c1.307-0.068,2.331-1.141,2.331-2.439
				c0-1.301-1.024-2.373-2.331-2.441c-0.797-0.041-1.422-0.699-1.422-1.498c0-0.828,0.672-1.52,1.5-1.52
				c1.355,0,2.458-1.104,2.458-2.459s-1.103-2.457-2.458-2.457c-0.828,0-1.5-0.672-1.5-1.5c0-0.828,0.672-1.5,1.5-1.5
				c1.355,0,2.458-1.104,2.458-2.459c0-1.355-1.103-2.459-2.458-2.459c-0.828,0-1.5-0.672-1.5-1.5s0.672-1.5,1.5-1.5
				c1.355,0,2.458-1.104,2.458-2.459s-1.103-2.457-2.458-2.457H36.928c-0.503,0-0.972-0.252-1.25-0.67
				c-0.277-0.418-0.327-0.949-0.132-1.412c4.138-9.822-1.043-16.713-1.68-17.504c-0.055-0.055-0.105-0.115-0.151-0.178
				c-0.473-0.652-1.195-1.025-1.984-1.025c-1.355,0-2.458,1.104-2.458,2.459c0,0.166,0.018,0.336,0.054,0.506
				c0.037,0.176,0.042,0.355,0.016,0.529c0.941,5.234-1.017,10.727-2.863,14.467c-0.154,0.313-0.306,0.611-0.448,0.883
				c-0.036,0.066-0.077,0.133-0.122,0.193c-0.722,0.969-1.78,1.588-2.981,1.74c-0.063,0.008-0.126,0.012-0.189,0.012h-0.446V24.634z
				"/>
		</g>
	</g>
</g>
<g>
</g>
<g>
</g>
<g>
</g>
<g>
</g>
<g>
</g>
<g>
</g>
<g>
</g>
<g>
</g>
<g>
</g>
<g>
</g>
<g>
</g>
<g>
</g>
<g>
</g>
<g>
</g>
<g>
</g>
</svg>
